<?xml version="1.0" encoding="UTF-8"?>
<svg id="Layer_1" data-name="Layer 1" xmlns="http://www.w3.org/2000/svg" viewBox="0 0 478.87 302.07">
  <defs>
    <style>
      .cls-1 {
        fill: #000;
      }
    </style>
  </defs>
  <path class="cls-1" d="M5.2,73.82c6.67,2.18,13.2-.47,19.43-2.87,5.68-2.19,11.28-4.62,16.78-7.24,11.62-5.53,22.8-11.92,33.96-18.3,21.85-12.49,43.86-25.05,68.61-30.75l-9.49-7.23c.12,32.91.53,65.82,1.27,98.72.67,30.11,2.58,60.45-.08,90.51-1.26,14.23-3.8,28.37-8.29,41.95-3.91,11.84-9.25,25.8-19.54,33.62-9.62,7.32-18.83,2.07-22.73-8.24-4-10.56-3.38-22.93-.85-33.75,5.39-23.12,20.9-43.49,41.88-54.64,21.35-11.35,47.1-11.15,69.42-2.8,11.14,4.17,21.53,10.73,30.07,19.01s15.47,19.29,26.14,25.72c26.17,15.77,50.65-14.13,73.55-23.03,30.76-11.96,57.61,11.1,79,30.55,23.58,21.45,46.3,44.42,60.74,73.21,4.33,8.63,17.27,1.04,12.95-7.57-14.05-28.02-35.82-51.1-58.65-72.18-21.06-19.45-45.77-42.48-76.34-42.56-15.14-.04-28.96,6.43-41.63,14.16-6.36,3.88-12.53,8.06-18.97,11.8-6.05,3.51-12.94,6.98-19.97,4.27-11.51-4.45-18.59-17.85-27.26-25.99-9.93-9.32-21.59-16.38-34.25-21.33-25.1-9.81-53.96-9.57-78.47,1.85-24.28,11.32-42.97,33.88-50.95,59.29-6.83,21.76-8.02,59.86,18.37,69.46,13.76,5,27.28-3.42,35.63-13.95,9.33-11.76,14.91-26.76,18.8-41.13,8.25-30.48,8.09-62.53,7.31-93.85-.89-35.48-1.67-70.95-1.97-106.44-.08-8.89-.13-17.77-.16-26.66-.02-5.03-4.76-8.32-9.49-7.23-23.77,5.47-45.43,17.02-66.48,29-10.48,5.96-20.89,12.04-31.61,17.56-5.28,2.72-10.64,5.32-16.11,7.65-4.24,1.81-12.06,6.44-16.61,4.95C-.01,56.35-3.95,70.83,5.2,73.82h0Z"/>
</svg>
